<?xml version="1.0" standalone="no"?><!DOCTYPE svg PUBLIC "-//W3C//DTD SVG 1.1//EN" "http://www.w3.org/Graphics/SVG/1.1/DTD/svg11.dtd"><svg t="1756300765234" class="icon" viewBox="0 0 1024 1024" version="1.1" xmlns="http://www.w3.org/2000/svg" p-id="2758" data-aid-id="aid-b171eae439e8" xmlns:xlink="http://www.w3.org/1999/xlink" width="200" height="200"><path d="M333.084633 735.270063 153.898601 735.270063c-37.052894 0-67.194378-30.142507-67.194378-67.195402L86.704223 130.518612c0-37.051871 30.141484-67.194378 67.194378-67.194378l627.149577 0c37.052894 0 67.195402 30.141484 67.195402 67.194378l0 313.573765c0 12.358469-10.063193 22.399149-22.399149 22.399149s-22.399149-10.04068-22.399149-22.399149L803.44528 130.518612c0-12.358469-10.060123-22.398126-22.398126-22.398126L153.898601 108.120486c-12.378935 0-22.398126 10.039657-22.398126 22.398126l0 537.556049c0 12.338003 10.019191 22.399149 22.398126 22.399149l179.185009 0c12.380982 0 22.398126 10.061147 22.398126 22.399149C355.482759 725.207893 345.465614 735.270063 333.084633 735.270063z" p-id="2759" data-aid-id="aid-192e64e5458778"></path><path d="M669.05857 959.251324c-8.881274 0-17.325597-5.337565-20.781302-14.08581l-76.031651-190.035124L439.519734 906.84372c-6.125511 6.999414-16.010649 9.493212-24.716938 6.211469-8.750291-3.236718-14.524808-11.637038-14.524808-20.955264L400.277988 220.154096c0-8.880251 5.250584-16.885576 13.343913-20.472264 8.135284-3.586688 17.585517-2.056845 24.14798 3.892657l492.76082 447.963545c6.866385 6.213515 9.18622 16.053628 5.818519 24.671912-3.323699 8.576329-11.638061 14.306844-20.869307 14.306844L724.613864 690.51679l77.301574 193.225793c4.593622 11.463076-1.006933 24.49795-12.468986 29.136597l-111.991654 44.795229c-2.752694 1.093914-5.597485 1.61887-8.354272 1.61887L669.05857 959.251324zM579.466066 690.472787c1.223874 0 2.536776 0.088004 3.761674 0.306992 7.698333 1.311879 14.086833 6.51846 17.017582 13.778818l81.237209 203.159026 70.430072-28.172643-81.236186-203.15698c-2.755764-6.913457-1.924839-14.786775 2.231831-20.912285 4.199649-6.123464 11.110035-9.842159 18.547425-9.842159l166.06213 0L445.075263 270.681886l0 561.705052 117.547183-134.344754c4.330632-4.856611 10.455119-7.656377 16.84362-7.656377L579.466066 690.472787z" p-id="2760" data-aid-id="aid-1ab1d2fa97c2c8"></path></svg>