<?xml version="1.0" standalone="no"?><!DOCTYPE svg PUBLIC "-//W3C//DTD SVG 1.1//EN" "http://www.w3.org/Graphics/SVG/1.1/DTD/svg11.dtd"><svg t="1756384257058" class="icon" viewBox="0 0 1024 1024" version="1.1" xmlns="http://www.w3.org/2000/svg" p-id="6546" data-aid-id="aid-e2fba20e67154" xmlns:xlink="http://www.w3.org/1999/xlink" width="200" height="200"><path d="M946.373 222.418C955.458 251.944 960 282.606 960 314.403s-6.246 62.459-18.738 91.985c-12.492 29.526-30.094 56.213-52.806 80.061-22.712 23.848-48.831 42.018-78.357 54.51-29.526 12.492-60.188 18.738-91.985 18.738s-62.459-6.814-91.985-20.441c-59.052 61.323-127.189 129.46-204.411 204.411-81.764 84.036-146.494 147.63-194.19 190.783-15.899 15.899-34.068 23.848-54.51 23.848-11.356 0-22.144-2.839-32.365-8.517s-19.873-13.06-28.958-22.144c-18.17-15.899-27.823-35.772-28.958-59.62-1.136-23.848 5.11-44.857 18.738-63.027a32423.043 32423.043 0 0 1 391.787-398.601c-11.356-29.526-17.034-60.755-17.034-93.688s6.246-64.73 18.738-95.392c12.492-30.662 30.094-57.349 52.806-80.061 22.712-22.712 48.831-40.314 78.357-52.806s59.62-18.738 90.281-18.738 60.755 4.542 90.281 13.627l10.221 51.103-132.866 136.273 78.357 78.357L895.27 212.198l51.103 10.22zM190.053 890.16c88.578-84.035 215.767-211.224 381.567-381.566-9.085-6.814-17.034-14.195-23.848-22.145-6.814-7.949-13.627-16.466-20.441-25.551-158.986 158.986-286.175 288.446-381.567 388.38-2.271 4.542-2.271 10.221 0 17.034 2.271 6.814 5.11 12.492 8.517 17.034s6.246 7.381 8.517 8.517c2.271 1.136 5.678 1.703 10.221 1.703h6.814c4.542 0.001 7.949-1.135 10.22-3.406z m708.624-596.198L782.844 409.795h-44.289l-119.24-119.24v-44.289l115.833-119.24h-17.034c-22.712 0-45.425 4.542-68.137 13.627-22.712 9.085-42.586 22.712-59.62 40.882s-30.094 38.611-39.179 61.323c-13.627 34.068-17.034 69.273-10.221 105.612 6.814 36.34 23.848 68.137 51.103 95.392 34.068 34.068 76.086 51.103 126.053 51.103s93.12-17.602 129.46-52.806c36.34-35.204 53.374-78.925 51.103-131.164v-17.033zM183.24 413.202L64 229.232l6.814-40.882 51.103-51.103 37.475-6.814 183.97 122.646 13.627 27.255-3.407 105.612 40.882 44.289-40.882 44.289-47.696-47.696h-95.392l-27.254-13.626z m-51.103-197.597l95.392 149.901h68.137v-71.544l-146.494-98.798-17.035 20.441z m671.148 630.266c2.271 2.271 3.975 5.11 5.11 8.517 1.136 3.407 1.703 7.382 1.703 11.924s-0.568 8.517-1.703 11.924c-1.136 3.407-2.839 6.814-5.11 10.221-2.271 3.407-6.246 6.246-11.924 8.517s-11.356 2.271-17.034 0c-5.678-2.271-10.788-5.678-15.331-10.221L561.399 682.342l-44.289 44.289 201.004 204.411c6.814 9.085 15.899 15.899 27.255 20.441 18.17 6.814 35.772 8.517 52.806 5.11 17.034-3.407 32.365-11.924 45.992-25.551 18.17-18.17 27.255-39.746 27.255-64.73 0-24.983-9.085-46.56-27.255-64.73L646.57 597.171l-44.289 44.289 201.004 204.411z" p-id="6547" data-aid-id="aid-1ff218f2de147" fill="#ffffff"></path></svg>