<?xml version="1.0" standalone="no"?><!DOCTYPE svg PUBLIC "-//W3C//DTD SVG 1.1//EN" "http://www.w3.org/Graphics/SVG/1.1/DTD/svg11.dtd"><svg t="1756394115528" class="icon" viewBox="0 0 1024 1024" version="1.1" xmlns="http://www.w3.org/2000/svg" p-id="5618" data-aid-id="aid-1c315ea7d326df" xmlns:xlink="http://www.w3.org/1999/xlink" width="200" height="200"><path d="M924.48 741.226667L681.706667 497.28c13.76-36.266667 20.8-74.453333 20.8-113.92C702.506667 206.933333 559.68 63.466667 384 63.466667c-35.306667 0-70.08 5.76-103.253333 17.173333-16.64 5.76-25.6 23.893333-19.84 40.64 1.92 5.44 5.013333 10.026667 9.066666 13.546667l163.733334 164.586666c12.48 12.48 12.48 32.853333 0 45.333334L343.68 435.2c-11.84 11.946667-32.853333 11.84-44.693333 0L134.933333 270.293333l-0.106666 0.106667c-3.413333-3.52-7.786667-6.293333-12.8-8-16.853333-5.653333-34.88 3.626667-40.426667 20.373333-10.666667 32.32-16 66.133333-16 100.586667 0 176.426667 142.826667 319.893333 318.4 319.893333 41.493333 0 81.493333-7.786667 119.253333-23.146666l240.746667 242.026666c24 24.106667 56.106667 37.44 90.24 37.44s66.24-13.333333 90.24-37.44c49.6-49.92 49.6-130.986667 0-180.906666z m-45.44 135.68c-23.786667 23.893333-65.92 23.893333-89.6 0L533.973333 620.266667c-1.813333-1.92-3.733333-3.626667-5.973333-5.12-0.106667 0-0.106667-0.106667-0.213333-0.106667-0.213333-0.213333-0.533333-0.32-0.746667-0.426667-0.32-0.213333-0.533333-0.32-0.853333-0.533333 0 0-0.106667 0-0.106667-0.106667-9.92-5.653333-22.186667-5.653333-32.106667 0.213334-34.453333 16.64-71.466667 25.066667-110.08 25.066666-140.266667 0-254.4-114.773333-254.4-255.893333 0-8.853333 0.426667-17.6 1.28-26.346667l122.773334 123.413334c18.026667 18.133333 42.026667 28.053333 67.733333 28.053333 25.6 0 49.706667-9.92 67.733333-28.053333l90.026667-90.453334c37.226667-37.333333 37.226667-98.24 0-135.573333L354.56 129.173333c9.706667-1.173333 19.52-1.706667 29.44-1.706666 140.266667 0 254.506667 114.773333 254.506667 255.893333 0 35.413333-7.04 69.546667-20.906667 101.546667-9.28 12.48-8.32 30.293333 2.986667 41.6l258.453333 259.733333c24.853333 25.173333 24.853333 65.706667 0 90.666667z" p-id="5619" data-aid-id="aid-f800b4282c4cf" fill="#707070"></path></svg>